<!-- Created with Inkscape (http://www.inkscape.org/) -->
<svg xmlns:rdf="http://www.w3.org/1999/02/22-rdf-syntax-ns#" xmlns="http://www.w3.org/2000/svg" version="1.1" xmlns:cc="http://creativecommons.org/ns#" xmlns:dc="http://purl.org/dc/elements/1.1/" viewBox="0 0 128 128">
 <g transform="translate(0 -924.4)">
  <path d="m13.78 1049c-0.9712-0.4898-1.51-1.029-2-2l-0.6704-1.33v-57.98-57.98l0.6704-1.33c0.4898-0.9712 1.029-1.51 2-2l1.329-0.6704h26.23 26.23l17.06 17.06 17.06 17.06v28.01 28.01l-16.91 16.91-16.91 16.91h-26.38-26.38l-1.329-0.6704zm61.69-61.98c0.5418-0.3687 1.266-1.049 1.608-1.512 0.6067-0.8188 0.6233-1.143 0.6233-12.12 0-10.93-0.01916-11.3-0.6143-12.1-0.3379-0.4526-0.9846-1.099-1.437-1.437-0.8103-0.605-1.103-0.6143-19.25-0.6143s-18.44 0.009-19.25 0.6143c-0.4526 0.3379-1.099 0.9844-1.437 1.437-0.5909 0.791-0.6176 1.246-0.699 11.92l-0.08469 11.09 0.6877 1.02c0.3782 0.5613 1.14 1.325 1.693 1.698l1.005 0.6775h18.09 18.09l0.9851-0.6704zm19.81 42.09 20.56-20.56 0.0852 3.193 0.0852 3.193-17.37 17.37-17.37 17.37h-3.278-3.278l20.56-20.56zm-0.4453 13.85 6.702-6.707 0.0823 4.671c0.0767 4.352 0.036 4.764-0.5959 6.037-0.5041 1.015-1.02 1.538-2.008 2.036-1.214 0.6121-1.745 0.6704-6.106 0.6704h-4.776l6.702-6.707zm11.06 5.143c0.4657-1.348 0.5418-2.615 0.5502-9.166l0.01-7.602 4.767-4.76 4.767-4.76v11.93c0 11.78-0.008 11.94-0.6704 13.26-1.055 2.091-2.496 2.67-6.647 2.67h-3.318l0.5404-1.564zm0.5599-60.26v-23.23l4.767 4.76 4.767 4.76v13.71 13.71l-4.767 4.76-4.767 4.76v-23.23zm-11.36-41.1-20.71-20.7h3.278 3.278l17.52 17.52 17.52 17.52-0.0852 3.193-0.0852 3.193-20.71-20.71zm16.01 2.606-4.693-4.7-0.01-7.744c-0.008-6.688-0.0834-7.957-0.5502-9.308l-0.5404-1.564h3.318c4.174 0 5.598 0.5774 6.651 2.698 0.6704 1.35 0.6735 1.418 0.5959 13.34l-0.0779 11.98-4.693-4.7zm-16.46-16.46-6.851-6.856h4.925c4.515 0 5.036 0.0558 6.255 0.6704 0.988 0.4982 1.504 1.021 2.008 2.036 0.6339 1.277 0.6727 1.68 0.5959 6.186l-0.0821 4.82-6.851-6.856z"/>
 </g>
</svg>
