<svg xmlns:rdf="http://www.w3.org/1999/02/22-rdf-syntax-ns#" xmlns="http://www.w3.org/2000/svg" xml:space="preserve" version="1.1" y="0px" x="0px" xmlns:cc="http://creativecommons.org/ns#" xmlns:dc="http://purl.org/dc/elements/1.1/" viewBox="0 0 128 128"><style type="text/css">
	.st0{fill:none;stroke:#000000;stroke-width:4;stroke-linecap:round;stroke-linejoin:round;stroke-miterlimit:10;}
</style><path d="m52.52 67.09c-2.178 1.556-4.511 3.111-6.534 4.978-0.6222 0.6222-1.4 0.7778-2.178 0.7778-0.9334 0-1.867-0.3111-2.489-1.089-22.09-22.87-22.09-46.05 0-68.91 1.244-1.244 3.422-1.4 4.667-0.1556 2.178 1.867 4.356 3.578 6.689 5.134-11.67 19.75-11.67 39.67-0.16 59.27zm49.78-49.78c-0.7778-0.6222-1.867-0.9334-2.8-0.7778-15.09 3.111-28.62 1.4-40.91-5.134-10.27 17.58-10.27 34.69 0 52.27 3.422-1.711 7-3.111 10.58-4.2v59.58c0 9.8 16.18 9.8 16.18 0v-62.07c4.667-0.1556 9.334 0.1556 14.31 0.9334 0.9334 0.1556 2.022-0.1556 2.8-0.7778 0.7778-0.6222 1.244-1.556 1.244-2.645v-34.53c-0.1556-0.9334-0.6222-2.022-1.4-2.645z"/></svg>
