<svg xmlns="http://www.w3.org/2000/svg" version="1.1" data-icon="collapse" width="128" height="128" class="iconic-collapse injected-svg iconic iconic-lg iconic-main" viewBox="0 0 128 128" data-src="/iconic/svg/collapse.svg" data-direction="up">
  <g><title>Expand</title></g>
  <g data-width="128" data-height="128" class="iconic-lg iconic-container" display="inline" transform="rotate(90 64 64)">
    <path class="iconic-collapse-line iconic-collapse-line-right iconic-property-fill" d="M112 0h16v128h-16z"></path>
    <path class="iconic-collapse-line iconic-collapse-line-left iconic-property-fill" d="M0 0h4v128h-4z"></path>
    <path stroke="#000" stroke-width="8" stroke-linecap="square" stroke-miterlimit="10" class="iconic-collapse-arrow iconic-collapse-arrow-line iconic-property-accent iconic-property-stroke" d="M100 64h-76" fill="none"></path>
    <path class="iconic-collapse-arrow iconic-collapse-arrow-head iconic-property-accent iconic-property-fill" d="M12 64l24 14v-28z"></path>
  </g>
  <g data-width="32" data-height="32" class="iconic-md iconic-container" display="none" transform="scale(4) rotate(0 16 16)">
    <path class="iconic-collapse-line iconic-collapse-line-right iconic-property-fill" d="M26 0h6v32h-6z"></path>
    <path class="iconic-collapse-line iconic-collapse-line-left iconic-property-fill" d="M0 0h2v32h-2z"></path>
    <path stroke="#000" stroke-width="3" stroke-linecap="square" stroke-miterlimit="10" class="iconic-collapse-arrow iconic-collapse-arrow-line iconic-property-accent iconic-property-stroke" d="M21.5 15.5h-11.5" fill="none"></path>
    <path class="iconic-collapse-arrow iconic-collapse-arrow-head iconic-property-accent iconic-property-fill" d="M5 15.5l6-4.5v9z"></path>
  </g>
  <g data-width="16" data-height="16" class="iconic-sm iconic-container" display="none" transform="scale(8) rotate(0 8 8)">
    <path class="iconic-collapse-line iconic-collapse-line-right iconic-property-fill" d="M12 0h4v16h-4z"></path>
    <path class="iconic-collapse-line iconic-collapse-line-left iconic-property-fill" d="M0 0h1v16h-1z"></path>
    <path class="iconic-collapse-arrow iconic-collapse-arrow-line iconic-property-accent iconic-property-fill" d="M5 7h5v2h-5z"></path>
    <path class="iconic-collapse-arrow iconic-collapse-arrow-head iconic-property-accent iconic-property-fill" d="M6 5v6l-3-3z"></path>
  </g>

</svg>