<svg xmlns="http://www.w3.org/2000/svg" version="1.1" data-icon="expand" width="128" height="128" class="iconic-expand injected-svg iconic iconic-lg iconic-main" viewBox="0 0 128 128" data-src="/iconic/svg/expand.svg" data-direction="down">
  <g><title>Expand</title></g>
  <g data-width="128" data-height="128" class="iconic-lg iconic-container" display="inline" transform="rotate(90 64 64)">
    <path class="iconic-expand-line iconic-expand-line-right iconic-property-fill" d="M112 0h16v128h-16z"></path>
    <path class="iconic-expand-line iconic-expand-line-left iconic-property-fill" d="M0 0h4v128h-4z"></path>
    <path stroke="#000" stroke-width="8" stroke-linecap="square" stroke-miterlimit="10" class="iconic-expand-arrow iconic-expand-arrow-line iconic-property-accent iconic-property-stroke" d="M16 64h76" fill="none"></path>
    <path class="iconic-expand-arrow iconic-expand-arrow-head iconic-property-accent iconic-property-fill" d="M104 64l-24-14v28z"></path>
  </g>
  <g data-width="32" data-height="32" class="iconic-md iconic-container" display="none" transform="scale(4) rotate(90 16 16)">
    <path class="iconic-expand-line iconic-expand-line-right iconic-property-fill" d="M26 0h6v32h-6z"></path>
    <path class="iconic-expand-line iconic-expand-line-left iconic-property-fill" d="M0 0h2v32h-2z"></path>
    <path stroke="#000" stroke-width="3" stroke-linecap="square" stroke-miterlimit="10" class="iconic-expand-arrow iconic-expand-arrow-line iconic-property-accent iconic-property-stroke" d="M6.5 15.5h11.5" fill="none"></path>
    <path class="iconic-expand-arrow iconic-expand-arrow-head iconic-property-accent iconic-property-fill" d="M23 15.5l-6 4.5v-9z"></path>
  </g>
  <g data-width="16" data-height="16" class="iconic-sm iconic-container" display="none" transform="scale(8) rotate(90 8 8)">
    <path class="iconic-expand-line iconic-expand-line-right iconic-property-fill" d="M12 0h4v16h-4z"></path>
    <path class="iconic-expand-line iconic-expand-line-left iconic-property-fill" d="M0 0h1v16h-1z"></path>
    <path class="iconic-expand-arrow iconic-expand-arrow-line iconic-property-accent iconic-property-fill" d="M3 7h5v2h-5z"></path>
    <path class="iconic-expand-arrow iconic-expand-arrow-head iconic-property-accent iconic-property-fill" d="M7 11v-6l3 3z"></path>
  </g>

</svg>