<?xml version="1.0" encoding="UTF-8" standalone="no"?>
<!-- Created with Inkscape (http://www.inkscape.org/) -->

<svg
   xmlns:dc="http://purl.org/dc/elements/1.1/"
   xmlns:cc="http://creativecommons.org/ns#"
   xmlns:rdf="http://www.w3.org/1999/02/22-rdf-syntax-ns#"
   xmlns:svg="http://www.w3.org/2000/svg"
   xmlns="http://www.w3.org/2000/svg"
   xmlns:sodipodi="http://sodipodi.sourceforge.net/DTD/sodipodi-0.dtd"
   xmlns:inkscape="http://www.inkscape.org/namespaces/inkscape"
   id="svg2"
   version="1.1"
   inkscape:version="0.91 r13725"
   width="128"
   height="128"
   viewBox="0 0 128 128"
   sodipodi:docname="family.svg">
  <metadata
     id="metadata8">
    <rdf:RDF>
      <cc:Work
         rdf:about="">
        <dc:format>image/svg+xml</dc:format>
        <dc:type
           rdf:resource="http://purl.org/dc/dcmitype/StillImage" />
        <dc:title></dc:title>
      </cc:Work>
    </rdf:RDF>
  </metadata>
  <defs
     id="defs6" />
  <sodipodi:namedview
     pagecolor="#ffffff"
     bordercolor="#666666"
     borderopacity="1"
     objecttolerance="10"
     gridtolerance="10"
     guidetolerance="10"
     inkscape:pageopacity='0'
     inkscape:pageshadow="2"
     inkscape:window-width="1920"
     inkscape:window-height="1057"
     id="namedview4"
     showgrid="true"
     inkscape:zoom="6.9375"
     inkscape:cx="64"
     inkscape:cy="64"
     inkscape:window-x="-8"
     inkscape:window-y="-8"
     inkscape:window-maximized="1"
     inkscape:current-layer="svg2">
    <inkscape:grid
       type="xygrid"
       id="grid4142" />
  </sodipodi:namedview>
  <path
     inkscape:transform-center-x="-26.631142"
     inkscape:transform-center-y="-44.251749"
     inkscape:connector-curvature='0'
     id="use4144"
     d="m 67.753196,107.21735 c -1.535317,-0.32057 -3.036645,-1.53915 -3.796407,-3.08143 l -0.356979,-0.72466 -0.04038,-22.886556 -0.04038,-22.886555 -1.630455,0 -1.630456,0 0,8.98705 c 0,10.141098 0.02996,9.85571 -1.175428,11.196388 -2.130646,2.36979 -6.038502,1.860322 -7.580487,-0.988261 -0.335342,-0.61949 -0.336693,-0.66282 -0.379244,-12.163706 -0.03772,-10.196751 -0.01351,-11.655029 0.207523,-12.511834 0.786389,-3.047917 3.308106,-5.660239 6.363094,-6.591703 0.879602,-0.268191 1.912277,-0.28434 18.184903,-0.28434 16.272626,0 17.305301,0.01617 18.184903,0.28434 3.048619,0.929521 5.576875,3.544297 6.359247,6.576862 0.21383,0.828826 0.24638,2.442174 0.24638,12.21215 0,12.675488 0.0499,12.103618 -1.175429,13.466492 -0.910871,1.013109 -1.970448,1.473719 -3.409653,1.482199 -1.425884,0.0084 -2.482401,-0.450869 -3.409653,-1.482199 -1.205391,-1.340678 -1.17543,-1.05529 -1.17543,-11.196388 l 0,-8.98705 -1.630454,0 -1.630456,0 -0.04038,22.886555 -0.04038,22.886556 -0.356981,0.72466 c -0.569323,1.15569 -1.492486,2.08529 -2.624109,2.64238 -0.901583,0.44385 -1.172765,0.50308 -2.303412,0.50308 -1.130647,0 -1.401828,-0.0593 -2.303412,-0.50308 -1.131623,-0.55709 -2.054786,-1.48669 -2.62411,-2.64238 l -0.35698,-0.72466 -0.04166,-12.006697 -0.04167,-12.006702 -1.626365,0 -1.626364,0 -0.04166,12.006702 -0.04167,12.006697 -0.356981,0.72466 c -1.129651,2.29314 -3.663036,3.58162 -6.058635,3.08143 z m 6.301128,-63.717441 c -5.263727,-0.962614 -8.98488,-5.405482 -8.975264,-10.716006 0.0049,-2.69401 0.733103,-4.841962 2.3017,-6.789041 1.418678,-1.760981 3.809208,-3.297951 5.933207,-3.814699 1.100853,-0.267826 4.02822,-0.267826 5.129075,0 2.989176,0.72724 5.825287,3.020161 7.212945,5.831477 0.838005,1.697748 1.069785,2.929703 0.982957,5.224546 -0.06305,1.666279 -0.14005,2.122204 -0.540961,3.202968 -0.611502,1.648461 -1.369184,2.809182 -2.662242,4.078389 -1.990775,1.954058 -4.300732,2.949989 -7.090957,3.057249 -0.854846,0.03284 -1.885553,-6.4e-4 -2.29046,-0.07489 z"
     style="fill:#000000" />
  <path
     style="fill:#000000"
     d="m 26.797108,107.76908 c -1.399862,-0.28822 -2.775782,-1.40431 -3.470981,-2.81553 -0.324588,-0.6589 -0.326596,-0.69935 -0.365908,-7.369828 l -0.03953,-6.707299 -4.744508,-0.04265 -4.744507,-0.04259 -0.615893,-0.42821 c -1.150116,-0.799642 -1.591344,-2.406956 -0.986015,-3.59187 0.148136,-0.289976 2.705979,-4.58783 5.684096,-9.55079 l 5.414751,-9.023562 4.2e-5,-2.877594 3.9e-5,-2.877591 -1.042986,0 -1.042986,0 -5.168089,7.754819 C 12.832191,74.461539 10.2655,78.168982 9.9708809,78.435152 9.1697024,79.158969 8.5192573,79.394204 7.2973308,79.402051 6.4866063,79.407204 6.0615226,79.332385 5.5210382,79.089159 4.6703891,78.706367 3.8295825,77.927813 3.4260295,77.149264 3.0302157,76.385641 2.923792,74.766052 3.2135489,73.915661 3.5100013,73.045622 15.456463,55.16991 16.488731,54.051756 c 1.045857,-1.13287 2.641503,-2.181936 3.94001,-2.590379 1.002533,-0.315349 1.060537,-0.317027 10.955103,-0.317027 9.894566,0 9.952571,0.0017 10.955099,0.317027 1.298508,0.408443 2.894156,1.457509 3.94001,2.590379 0.974187,1.055238 12.955018,18.946525 13.252972,19.791 0.266699,0.755913 0.255674,2.031248 -0.02469,2.854061 -0.311846,0.915206 -1.298904,1.972367 -2.220867,2.378599 -0.573247,0.252578 -1.001662,0.329289 -1.816005,0.325176 -1.222133,-0.0063 -1.871184,-0.240555 -2.673547,-0.96544 -0.294619,-0.26617 -2.86131,-3.973613 -5.703765,-8.238765 l -5.16809,-7.75482 -1.042975,0 -1.042988,0 3.8e-5,2.877593 3.9e-5,2.877593 5.414747,9.023562 c 2.978122,4.962961 5.535965,9.260814 5.684097,9.550789 0.605331,1.184916 0.164108,2.792228 -0.986015,3.591872 l -0.615885,0.42821 -4.744514,0.04259 -4.744511,0.04265 -0.0396,6.707299 c -0.03935,6.670485 -0.04125,6.710925 -0.365903,7.369825 -0.523136,1.06195 -1.363999,1.90625 -2.413111,2.42299 l -0.948253,0.46706 -4.337623,0.0253 c -2.385693,0.0139 -4.611156,-0.031 -4.945468,-0.0998 z m 2.918927,-58.253878 c -4.81214,-0.879631 -8.214696,-4.942083 -8.205905,-9.797373 0.0045,-2.463079 0.670261,-4.42691 2.104399,-6.207081 1.296546,-1.609381 3.479554,-3.01326 5.424611,-3.488531 1.1223,-0.274232 3.686684,-0.232002 4.902564,0.08072 2.721915,0.700098 5.215515,2.790509 6.47383,5.427057 1.192304,2.498243 1.129385,5.98351 -0.155578,8.618903 -1.175014,2.40989 -3.711417,4.477653 -6.318252,5.15086 -1.036761,0.267745 -3.306476,0.383456 -4.225669,0.215433 z"
     id="path4138"
     inkscape:connector-curvature='0'
     inkscape:transform-center-x="-30.062379"
     inkscape:transform-center-y="-40.204996" />
  <path
     style="fill:#000000"
     d="m 104.83021,107.88584 c -0.84654,-0.17676 -1.67434,-0.84866 -2.09325,-1.69904 l -0.19684,-0.39956 -0.0224,-11.439751 -0.0224,-11.439754 -4.145133,-4.15745 c -3.889965,-3.90152 -4.154336,-4.185825 -4.294577,-4.618427 -0.193896,-0.598107 -0.143728,-1.538708 0.107966,-2.02429 0.182835,-0.352735 0.664138,-0.849608 1.05873,-1.09298 0.123077,-0.07592 0.456849,-0.186163 0.74171,-0.245001 0.617036,-0.127451 1.325048,-0.0057 1.81602,0.312197 0.167008,0.108147 1.711056,1.607611 3.431224,3.332146 l 3.12757,3.135519 4.94306,0 4.94306,0 3.11308,-3.120591 c 1.7122,-1.716324 3.27228,-3.217857 3.46686,-3.33674 0.54224,-0.331302 1.27399,-0.454738 1.88506,-0.317988 0.27408,0.06134 0.59591,0.171586 0.71517,0.245001 0.38761,0.238595 0.87008,0.737865 1.0518,1.088437 0.2517,0.485597 0.30187,1.42619 0.10794,2.02429 -0.14023,0.432527 -0.40403,0.716317 -4.27408,4.597968 l -4.12462,4.136988 -0.0428,11.460215 -0.0429,11.460211 -0.19684,0.39956 c -0.31391,0.63723 -0.82292,1.14979 -1.44687,1.45696 -0.49547,0.24392 -0.64745,0.27733 -1.25955,0.27691 -0.56772,-4.5e-4 -0.78579,-0.0416 -1.18245,-0.22371 -0.64677,-0.29686 -1.21374,-0.83439 -1.5044,-1.42625 l -0.23742,-0.48347 -0.0238,-5.549 -0.0238,-5.549005 -0.89562,0 -0.89561,0 -0.0233,5.549005 -0.0233,5.549 -0.19684,0.39956 c -0.62286,1.26439 -2.01972,1.97483 -3.3406,1.69904 z M 108.304,76.609724 c -2.90652,-0.531145 -4.95356,-2.97542 -4.94825,-5.908472 0.003,-1.48542 0.40422,-2.669757 1.26911,-3.743333 0.78191,-0.970577 2.09843,-1.81722 3.27145,-2.103844 0.67683,-0.165383 2.22334,-0.139915 2.95661,0.04869 1.64151,0.42221 3.14535,1.682884 3.90419,3.27292 0.71905,1.506626 0.68112,3.608502 -0.0939,5.19784 -0.70862,1.453344 -2.23826,2.700359 -3.81038,3.106354 -0.62544,0.16152 -1.99407,0.23124 -2.54892,0.129846 z"
     id="path4138-3"
     inkscape:connector-curvature='0'
     inkscape:transform-center-x="-16.346217"
     inkscape:transform-center-y="-23.011183" />
</svg>
