<?xml version="1.0" encoding="UTF-8" standalone="no"?>
<!-- Created with Inkscape (http://www.inkscape.org/) -->

<svg
   xmlns:dc="http://purl.org/dc/elements/1.1/"
   xmlns:cc="http://creativecommons.org/ns#"
   xmlns:rdf="http://www.w3.org/1999/02/22-rdf-syntax-ns#"
   xmlns:svg="http://www.w3.org/2000/svg"
   xmlns="http://www.w3.org/2000/svg"
   xmlns:sodipodi="http://sodipodi.sourceforge.net/DTD/sodipodi-0.dtd"
   xmlns:inkscape="http://www.inkscape.org/namespaces/inkscape"
   id="svg2"
   version="1.1"
   inkscape:version="0.91 r13725"
   width="128"
   height="128"
   viewBox="0 0 128 128"
   sodipodi:docname="female.svg">
  <metadata
     id="metadata8">
    <rdf:RDF>
      <cc:Work
         rdf:about="">
        <dc:format>image/svg+xml</dc:format>
        <dc:type
           rdf:resource="http://purl.org/dc/dcmitype/StillImage" />
        <dc:title></dc:title>
      </cc:Work>
    </rdf:RDF>
  </metadata>
  <defs
     id="defs6" />
  <sodipodi:namedview
     pagecolor="#ffffff"
     bordercolor="#666666"
     borderopacity="1"
     objecttolerance="10"
     gridtolerance="10"
     guidetolerance="10"
     inkscape:pageopacity="0"
     inkscape:pageshadow="2"
     inkscape:window-width="1920"
     inkscape:window-height="1057"
     id="namedview4"
     showgrid="true"
     inkscape:zoom="6.9375"
     inkscape:cx="64"
     inkscape:cy="64"
     inkscape:window-x="-8"
     inkscape:window-y="-8"
     inkscape:window-maximized="1"
     inkscape:current-layer="svg2">
    <inkscape:grid
       type="xygrid"
       id="grid4140" />
  </sodipodi:namedview>
  <path
     style="fill:#000000"
     d="m 57.119957,125.10783 c -2.199056,-0.45276 -4.360501,-2.20604 -5.452595,-4.42294 -0.509899,-1.03507 -0.513054,-1.09861 -0.574808,-11.57733 l -0.0621,-10.536555 -7.453194,-0.06695 -7.453193,-0.06694 -0.967509,-0.672681 c -1.806729,-1.256166 -2.49986,-3.781109 -1.548941,-5.642504 0.232709,-0.455524 4.250848,-7.207063 8.9292,-15.003424 l 8.506084,-14.1752 6.4e-5,-4.520439 6.2e-5,-4.520437 -1.638436,0 -1.638436,0 -8.118599,12.18212 c -4.465226,6.700166 -8.497265,12.524224 -8.960084,12.942352 -1.25858,1.137052 -2.28037,1.506585 -4.199905,1.51891 -1.273576,0.0082 -1.941344,-0.109449 -2.790395,-0.491524 -1.336286,-0.60133 -2.657119,-1.824369 -3.291062,-3.047399 -0.621789,-1.199582 -0.788971,-3.74381 -0.333788,-5.079699 0.465699,-1.366751 19.232507,-29.447878 20.854108,-31.204395 1.642948,-1.779637 4.149561,-3.427624 6.189399,-4.069252 1.57489,-0.495383 1.666009,-0.49802 17.209477,-0.49802 15.543469,0 15.634588,0.0026 17.209478,0.49802 2.039839,0.641628 4.546451,2.289615 6.189399,4.069252 1.530358,1.657683 20.351157,29.763275 20.819207,31.089869 0.41897,1.187471 0.40164,3.190909 -0.0388,4.48347 -0.48988,1.437706 -2.04045,3.09841 -3.48878,3.736567 -0.90051,0.396776 -1.57351,0.517282 -2.85277,0.510821 -1.91986,-0.0097 -2.939472,-0.377889 -4.199912,-1.51662 -0.462817,-0.418128 -4.494856,-6.242186 -8.960089,-12.942353 l -8.118598,-12.18212 -1.638436,0 -1.638436,0 6.2e-5,4.520437 6.2e-5,4.520439 8.506087,14.1752 c 4.678352,7.796361 8.69649,14.5479 8.929199,15.003424 0.950918,1.861395 0.257791,4.386338 -1.548942,5.642504 l -0.96751,0.672681 -7.453191,0.06694 -7.453194,0.06695 -0.06209,10.536556 c -0.06176,10.47872 -0.06491,10.54226 -0.574808,11.57733 -0.821805,1.66822 -2.142713,2.99454 -3.790788,3.80629 l -1.489608,0.73371 -6.814017,0.0398 c -3.747708,0.0219 -7.243708,-0.0487 -7.768884,-0.15682 z m 4.58537,-91.511561 C 54.145891,32.214448 48.800784,25.832703 48.814594,18.205482 c 0.007,-3.869273 1.05292,-6.954275 3.30582,-9.7507645 2.036757,-2.5281903 5.466066,-4.7335556 8.521574,-5.4801656 1.763031,-0.4307928 5.791439,-0.3644544 7.701486,0.1268241 4.275874,1.0997895 8.193107,4.3836357 10.169794,8.525415 1.873,3.924514 1.774171,9.399553 -0.244399,13.539518 -1.845842,3.785718 -5.830298,7.033988 -9.925395,8.091536 -1.628666,0.420599 -5.194176,0.602373 -6.638147,0.338424 z"
     id="path4138"
     inkscape:connector-curvature="0"
     inkscape:transform-center-x="-47.225277"
     inkscape:transform-center-y="-63.158406" />
</svg>
