<svg id="Flow_split-horizontal" xmlns:rdf="http://www.w3.org/1999/02/22-rdf-syntax-ns#" xmlns="http://www.w3.org/2000/svg" enable-background="new 0 0 32 32" xml:space="preserve" viewBox="0 0 32 32" height="32" width="32" version="1.1" y="0px" x="0px" xmlns:cc="http://creativecommons.org/ns#" xmlns:dc="http://purl.org/dc/elements/1.1/"><path id="path4163" d="m24.2 2.439h-3.95c-3.285 0-5.949 2.663-5.949 5.949v3.399c0 1.407-1.142 2.549-2.549 2.549h-3.95c-0.6459-1.402-2.053-2.379-3.698-2.379-2.254 0-4.079 1.825-4.079 4.079s1.825 4.079 4.079 4.079c1.644 0 3.053-0.979 3.698-2.379h3.95c1.407 0 2.549 1.142 2.549 2.549v3.399c0 3.285 2.663 5.949 5.949 5.949h3.95c0.6459 1.402 2.055 2.379 3.698 2.379 2.254 0 4.079-1.825 4.079-4.079s-1.827-4.079-4.079-4.079c-1.644 0-3.053 0.979-3.698 2.379h-3.95c-1.407 0-2.549-1.142-2.549-2.549v-3.399c0-3.634-3.593-5.918-5.954-5.918-2.884 0-2.663 3.338 0.03828 3.338 3.257 0 5.916-2.552 5.916-5.918v-3.399c0-1.407 1.142-2.549 2.549-2.549h3.95c0.6459 1.402 2.053 2.379 3.698 2.379 2.254 0 4.079-1.825 4.079-4.079s-1.827-4.079-4.079-4.079c-1.644 0-3.053 0.9773-3.698 2.379zm-22.45 13.6c0-1.299 1.052-2.352 2.354-2.352 1.299 0 2.354 1.054 2.354 2.352 0 1.3-1.055 2.352-2.354 2.352-1.302 0-2.354-1.052-2.354-2.352zm28.5 11.9c0 1.302-1.055 2.354-2.354 2.354-1.302 0-2.354-1.052-2.354-2.354 0-1.299 1.052-2.352 2.354-2.352 1.299 0 2.354 1.054 2.354 2.352zm0-23.79c0 1.302-1.055 2.354-2.354 2.354-1.302 0-2.354-1.052-2.354-2.354 0-1.299 1.052-2.352 2.354-2.352 1.299 0 2.354 1.054 2.354 2.352z"/></svg>
