<!-- Created with Inkscape (http://www.inkscape.org/) -->
<svg xmlns:rdf="http://www.w3.org/1999/02/22-rdf-syntax-ns#" xmlns="http://www.w3.org/2000/svg" viewBox="0 0 64 64" version="1.1" xmlns:cc="http://creativecommons.org/ns#" xmlns:dc="http://purl.org/dc/elements/1.1/">
 <path d="m22.34 35.02h21.8c0.8865 0 1.6 0.697 1.6 1.562 0 0.8655-0.7135 1.562-1.6 1.562h-21.8c-0.8865 0-1.6-0.697-1.6-1.562 0-0.8655 0.7135-1.562 1.6-1.562z"/>
 <rect fill-rule="evenodd" rx="1" ry="1" height="10" width="52" y="48" x="6"/>
 <path d="m32 4a18 17 0 0 0 -17.99 16.73h-0.01v0.27 25h36v-25-0.27h-0.01a18 17 0 0 0 -17.99 -16.73z" fill-rule="evenodd"/>
 <g fill="#fff">
  <rect fill-rule="evenodd" rx="1" ry="1" height="3" width="26" y="31" x="19"/>
  <rect fill-rule="evenodd" rx="1" ry="1" height="3" width="26" y="36" x="19"/>
  <path d="m32 8.373c2.415 0.00002 4.373 2.43 4.373 5.43-0.0021 1.766-0.6958 3.42-1.86 4.435 0.1466 0.0902 0.3001 0.1772 0.4698 0.2532 0.8648 0.3869 1.857 1.026 2.707 1.455 0.85 0.4288 1.738 0.4996 2.275 0.8695 1.145 0.7885 0.995 3.073 1.062 4.13l-8.956-0.011v0.0179l-8.987 0.011c0.0665-1.058-0.08331-3.342 1.062-4.13 0.5364-0.3698 1.425-0.4406 2.275-0.8695 0.85-0.4288 1.842-1.068 2.707-1.456 0.147-0.0658 0.2814-0.1402 0.4108-0.2173-1.197-1.01-1.914-2.691-1.914-4.488 0.000051-2.998 1.958-5.43 4.373-5.43z"/>
 </g>
</svg>
