<!-- Created with Inkscape (http://www.inkscape.org/) -->
<svg xmlns:rdf="http://www.w3.org/1999/02/22-rdf-syntax-ns#" xmlns="http://www.w3.org/2000/svg" viewBox="0 0 128 128" version="1.1" xmlns:cc="http://creativecommons.org/ns#" xmlns:dc="http://purl.org/dc/elements/1.1/">
 <path d="m50.38 125.4c-2.205-0.4603-4.361-2.21-5.452-4.425l-0.5126-1.041-0.05798-32.87-0.05798-32.87h-2.341-2.341v12.91c0 14.56 0.04302 14.15-1.688 16.08-3.06 3.403-8.671 2.671-10.89-1.419-0.4816-0.8896-0.4835-0.9518-0.5446-17.47-0.05417-14.64-0.01944-16.74 0.298-17.97 1.129-4.377 4.75-8.128 9.137-9.466 1.263-0.3851 2.746-0.4083 26.11-0.4083 23.37 0 24.85 0.02322 26.11 0.4083 4.378 1.335 8.008 5.09 9.132 9.444 0.3071 1.19 0.3538 3.507 0.3538 17.54 0 18.2 0.07168 17.38-1.688 19.34-1.308 1.455-2.83 2.116-4.896 2.128-2.048 0.01202-3.565-0.6475-4.896-2.128-1.731-1.925-1.688-1.515-1.688-16.08v-12.91h-2.341-2.341l-0.05798 32.87-0.05798 32.87-0.5126 1.041c-0.8176 1.66-2.143 2.994-3.768 3.794-1.295 0.6374-1.684 0.7224-3.308 0.7224s-2.013-0.0851-3.308-0.7224c-1.625-0.8-2.951-2.135-3.768-3.794l-0.5126-1.041-0.05983-17.24-0.05983-17.24h-2.335-2.335l-0.05983 17.24-0.05983 17.24-0.5126 1.041c-1.622 3.293-5.26 5.143-8.7 4.425zm9.048-91.5c-7.559-1.382-12.9-7.762-12.89-15.39 0.007-3.869 1.053-6.953 3.305-9.749 2.037-2.529 5.47-4.736 8.52-5.478 1.581-0.3846 5.785-0.3846 7.365 0 4.292 1.044 8.365 4.337 10.36 8.374 1.203 2.438 1.536 4.207 1.412 7.502-0.09053 2.393-0.2011 3.047-0.7768 4.599-0.8781 2.367-1.966 4.034-3.823 5.857-2.859 2.806-6.176 4.236-10.18 4.39-1.228 0.04717-2.708-0.000917-3.289-0.1075z"/>
</svg>
