<svg xmlns:rdf="http://www.w3.org/1999/02/22-rdf-syntax-ns#" xmlns="http://www.w3.org/2000/svg" enable-background="new 0 0 84.1 100" xml:space="preserve" version="1.1" y="0px" x="0px" xmlns:cc="http://creativecommons.org/ns#" xmlns:dc="http://purl.org/dc/elements/1.1/" viewBox="0 0 128 128"><path d="m61.58 60.56 0.3631 4.001 7.256 7.256 6.351-6.35 6.349-6.349-7.258-7.258-4-0.3644c11.21-15.55 9.83-37.36-4.16-51.34l-56.24 56.24c13.99 13.99 35.8 15.37 51.34 4.164z"/><path d="m111.3 111.3h5.132c0-6.415-3.848-12.83-6.414-15.39l-27.25-30.46-3.628 3.628-3.627 3.629 30.66 27.05c3.849 3.849 5.132 8.981 5.132 11.55z"/><path d="m117.8 124.2c0 2.126-1.723 3.848-3.849 3.848s-3.848-1.722-3.848-3.848 3.848-10.26 3.848-10.26 3.849 8.136 3.849 10.26z"/></svg>
