<svg xmlns:rdf="http://www.w3.org/1999/02/22-rdf-syntax-ns#" xmlns="http://www.w3.org/2000/svg" viewBox="0 0 128 128" version="1.1" data-icon="person" data-src="/iconic/svg/person.svg" xmlns:cc="http://creativecommons.org/ns#" xmlns:dc="http://purl.org/dc/elements/1.1/" class="iconic-person injected-svg iconic iconic-lg iconic-main">
 <g>
  <title>Person</title>
 </g>
 <path d="m87.9 80c-0.8 0-2 0.4-2.7 0.9-6.1 4.6-13.3 7.1-21.2 7.1-7.5 0-14.5-2.5-20.5-7.1-0.7-0.5-1.8-0.9-2.7-0.9h-8.8c-17.7 0-32 14.3-32 32v14.5c0 0.8 0.7 1.5 1.5 1.5h125c0.8 0 1.5-0.7 1.5-1.5v-14.5c0-17.7-14.3-32-32-32h-8.1z" class="iconic-person-body iconic-property-fill"/>
 <path d="m64 0c-17.7 0-32 12.9-32 35s11.9 45 32 45c21.9 0 32-22.9 32-45s-14.3-35-32-35zm-0.52 17.09c4.31 0 7.89 1.03 10.74 3.09s4.28 5.1 4.28 9.14c0 2.47-0.87 4.56-2.1 6.25-0.73 1.03-2.37 2.34-4.42 3.94l-2.28 1.57c-1.1 0.86-2.08 1.85-2.44 3-0.2 0.6-0.31 1.14-0.36 2.18 0 0.22-0.14 0.69-0.78 0.69h-6.42c-0.72 0-0.8-0.43-0.79-0.63 0.1-2.88 0.2-4.88 1.34-6.22 1.97-2.31 6.45-5.19 6.45-5.19 0.69-0.51 1.24-1.07 1.66-1.68 0.76-1.05 1.39-2.2 1.39-3.46 0-1.44-0.42-2.76-1.27-3.95-0.84-1.19-2.39-1.78-4.64-1.78-2.2 0-3.77 0.73-4.69 2.19-0.92 1.47-1.38 2.99-1.38 4.57h-8.27c0.23-5.42 2.12-9.27 5.69-11.54 2.25-1.44 5.02-2.17 8.29-2.17zm-0.13 34.81c2.98 0.09 5.15 2.19 5.06 5.28s-2.38 5-5.35 4.91c-2.85-0.08-5.08-2.13-5-5.21 0.09-3.09 2.44-5.06 5.29-4.98z"/>
 <g data-width="112" transform="translate(8)" class="iconic-lg iconic-container" data-height="128">
  <g class="iconic-person-female" display="none">
   <path d="m78.7 80c-0.7 0-1.7 0.5-2.3 1-6.3 5.8-13.4 9-20.4 9-7.3 0-14.4-3.4-20.5-9-0.6-0.6-1.6-1-2.3-1h-1.2c-8 0-32 16-32 40v6.5c0 0.8 0.7 1.5 1.5 1.5h109c0.8 0 1.5-0.7 1.5-1.5v-6.5c0-24-24-40-32-40h-1.3z" class="iconic-person-female-body iconic-property-fill"/>
   <path d="m104 64c-8 0-18-5.3-18-24 0-22.1-12.3-40-30-40s-30 17.9-30 40c0 18.7-10 24-18 24 0 0 11.5 4.3 24.9 1 5.9 10.1 14.8 17 23.1 17s17.3-7 23.2-17.2c13.2 3.5 24.8-0.8 24.8-0.8z" class="iconic-person-female-head iconic-property-fill"/>
  </g>
 </g>
 <g data-width="128" data-height="128" class="iconic-lg iconic-container">
  <g class="iconic-person-male" display="none">
   <path d="m90.8 80c-0.8 0-1.9 0.5-2.5 1.1-6.6 7.1-14.9 10.9-24.3 10.9s-17.8-3.8-24.3-10.9c-0.6-0.6-1.7-1.1-2.5-1.1h-5.2c-17.7 0-32 14.3-32 32v14.5c0 0.8 0.7 1.5 1.5 1.5h125c0.8 0 1.5-0.7 1.5-1.5v-14.5c0-17.7-14.3-32-32-32h-5.2z" class="iconic-person-male-body iconic-property-fill"/>
   <path d="m80 8c-0.5-7.5-9.4-8-16-8-31.8 0-36.3 26-30 40 0 22.1 10 44 30 44 19.8 0 30-21.9 30-44 7.7-23.7-6.2-32-14-32z" class="iconic-person-male-head iconic-property-fill"/>
  </g>
 </g>
 <g data-width="32" display="none" transform="scale(4)" class="iconic-md iconic-container" data-height="32">
  <g class="iconic-person-genderless">
   <path d="m23.6 20c-0.2 0-0.6 0.2-0.8 0.3-1.8 1.7-4.2 2.7-6.8 2.7s-5-1-6.8-2.7c-0.2-0.1-0.5-0.3-0.8-0.3h-0.4c-4.4 0-8 3.6-8 8v3.5c0 0.3 0.2 0.5 0.5 0.5h31c0.3 0 0.5-0.2 0.5-0.5v-3.5c0-4.4-3.6-8-8-8h-0.4z" class="iconic-person-body iconic-property-fill"/>
   <path d="m24 9c0 5.5-2.6 11-8 11-5.5 0-8-5.5-8-11s3.6-9 8-9 8 3.5 8 9z" class="iconic-person-head iconic-property-fill"/>
  </g>
 </g>
 <g data-width="28" display="none" transform="scale(4) translate(2)" class="iconic-md iconic-container" data-height="32">
  <g class="iconic-person-female" display="none">
   <path d="m20.6 20.5c-2 2.1-4.3 3.5-6.6 3.5s-4.6-1.4-6.6-3.5c-0.2-0.2-0.5-0.3-0.8-0.2-2.5 1.2-6.6 4.7-6.6 9.7v1.5c0 0.3 0.2 0.5 0.5 0.5h27c0.3 0 0.5-0.2 0.5-0.5v-1.5c0-5-4.1-8.5-6.6-9.6-0.3-0.2-0.7-0.1-0.8 0.1z" class="iconic-person-female-body iconic-property-fill"/>
   <path d="m26 17c-2 0-4-2.3-4-7 0-5.5-3.6-10-8-10s-8 4.5-8 10c0 4.7-2 7-4 7 0 0 2.9 0.7 6.3-0.2 1.7 2.5 4 4.2 5.7 4.2s4.1-1.8 5.8-4.3c3.3 1 6.2 0.3 6.2 0.3z" class="iconic-person-female-head iconic-property-fill"/>
  </g>
 </g>
 <g data-width="32" display="none" transform="scale(4)" class="iconic-md iconic-container" data-height="32">
  <g class="iconic-person-male" display="none">
   <path d="m23.9 20.4c-1.9 2.3-4.6 3.6-7.9 3.6s-6-1.3-7.9-3.6c-0.2-0.2-0.5-0.4-0.8-0.4-4.1 0.4-7.3 3.8-7.3 8v3.5c0 0.3 0.2 0.5 0.5 0.5h31c0.3 0 0.5-0.2 0.5-0.5v-3.5c0-4.2-3.2-7.6-7.3-8-0.3 0-0.6 0.2-0.8 0.4z" class="iconic-person-male-body iconic-property-fill"/>
   <path d="m20 2c-0.1-1.9-2.3-2-4-2-7.9 0-9.6 6.5-8 10 0 5.5 1.9 11 8 11 5.9 0 8-5.5 8-11 1.9-5.9-2.1-8-4-8z" class="iconic-person-male-head iconic-property-fill"/>
  </g>
 </g>
 <g data-width="16" display="none" transform="scale(8)" class="iconic-sm iconic-container" data-height="16">
  <g class="iconic-person-genderless">
   <path d="m12.2 10c-1.1 1.2-2.6 2-4.2 2s-3.1-0.8-4.2-2c-2.1 0.1-3.8 1.9-3.8 4v2h16v-2c0-2.1-1.7-3.9-3.8-4z" class="iconic-person-body iconic-property-fill"/>
   <ellipse rx="4" ry="5" class="iconic-person-head iconic-property-fill" cy="5" cx="8"/>
  </g>
 </g>
 <g data-width="16" display="none" transform="scale(8)" class="iconic-sm iconic-container" data-height="16">
  <g class="iconic-person-female" display="none">
   <path d="m11.8 10.2c-1.2 1.1-2.5 1.8-3.8 1.8s-2.6-0.7-3.8-1.8c-1.5 0.5-4.2 2.3-4.2 4.8v1h16v-1c0-2.5-2.7-4.3-4.2-4.8z" class="iconic-person-female-body iconic-property-fill"/>
   <path d="m14 8c-1 0-2-0.7-2-3 0-2.8-1.8-5-4-5s-4 2.2-4 5c0 2.3-1 3-2 3 0 0 1.5 0.8 3.3 0.3 0.8 1 1.9 1.7 2.7 1.7s1.9-0.7 2.8-1.7c1.7 0.5 3.2-0.3 3.2-0.3z" class="iconic-person-female-head iconic-property-fill"/>
  </g>
 </g>
 <g data-width="16" display="none" transform="scale(8)" class="iconic-sm iconic-container" data-height="16">
  <g class="iconic-person-male" display="none">
   <path d="m12.5 10c-1 1.3-2.6 2-4.5 2s-3.4-0.7-4.5-2c-2 0.3-3.5 2-3.5 4v2h16v-2c0-2-1.5-3.7-3.5-4z" class="iconic-person-male-body iconic-property-fill"/>
   <path d="m10 1c-0.1-0.9-1.2-1-2-1-4 0-4.8 3.2-4 5 0 2.8 1 5 4 5s4-2.2 4-5c1-3-1-4-2-4z" class="iconic-person-male-head iconic-property-fill"/>
  </g>
 </g>
</svg>
