<?xml version="1.0" encoding="UTF-8" standalone="no"?>
<svg
   xmlns:dc="http://purl.org/dc/elements/1.1/"
   xmlns:cc="http://creativecommons.org/ns#"
   xmlns:rdf="http://www.w3.org/1999/02/22-rdf-syntax-ns#"
   xmlns:svg="http://www.w3.org/2000/svg"
   xmlns="http://www.w3.org/2000/svg"
   xmlns:sodipodi="http://sodipodi.sourceforge.net/DTD/sodipodi-0.dtd"
   xmlns:inkscape="http://www.inkscape.org/namespaces/inkscape"
   version="1.1"
   data-icon="person"
   width="128"
   height="128"
   class="iconic-person injected-svg iconic iconic-lg iconic-main"
   viewBox="0 0 128 128"
   data-src="/iconic/svg/person.svg"
   id="svg4136"
   inkscape:version="0.91 r13725"
   sodipodi:docname="person-delete.svg">
  <metadata
     id="metadata4218">
    <rdf:RDF>
      <cc:Work
         rdf:about="">
        <dc:format>image/svg+xml</dc:format>
        <dc:type
           rdf:resource="http://purl.org/dc/dcmitype/StillImage" />
        <dc:title></dc:title>
      </cc:Work>
    </rdf:RDF>
  </metadata>
  <defs
     id="defs4216" />
  <sodipodi:namedview
     pagecolor="#ffffff"
     bordercolor="#666666"
     borderopacity="1"
     objecttolerance="10"
     gridtolerance="10"
     guidetolerance="10"
     inkscape:pageopacity='0'
     inkscape:pageshadow="2"
     inkscape:window-width="1920"
     inkscape:window-height="1057"
     id="namedview4214"
     showgrid="false"
     inkscape:zoom="6.9375"
     inkscape:cx="64"
     inkscape:cy="64"
     inkscape:window-x="-8"
     inkscape:window-y="-8"
     inkscape:window-maximized="1"
     inkscape:current-layer="svg4136" />
  <g
     id="g4138">
    <title
       id="title4140">Person</title>
  </g>
  <g
     data-width="128"
     data-height="128"
     class="iconic-lg iconic-container"
     display="inline"
     id="g4142">
    <g
       class="iconic-person-genderless"
       id="g4144">
      <path
         d="M87.9 80c-.8 0-2 .4-2.7.9-6.1 4.6-13.3 7.1-21.2 7.1-7.5 0-14.5-2.5-20.5-7.1-.7-.5-1.8-.9-2.7-.9h-8.8c-17.7 0-32 14.3-32 32v14.5c0 .8.7 1.5 1.5 1.5h125c.8 0 1.5-.7 1.5-1.5v-14.5c0-17.7-14.3-32-32-32h-8.1z"
         class="iconic-person-body iconic-property-fill"
         id="path4146" />
      <path
         d="M96 35c0 22.1-10.1 45-32 45-20.1 0-32-22.9-32-45s14.3-35 32-35 32 12.9 32 35z"
         class="iconic-person-head iconic-property-fill"
         id="path4148" />
    </g>
  </g>
  <g
     data-width="112"
     data-height="128"
     class="iconic-lg iconic-container"
     display="inline"
     transform="translate(8)"
     id="g4150">
    <g
       class="iconic-person-female"
       display="none"
       id="g4152">
      <path
         d="M78.7 80c-.7 0-1.7.5-2.3 1-6.3 5.8-13.4 9-20.4 9-7.3 0-14.4-3.4-20.5-9-.6-.6-1.6-1-2.3-1h-1.2c-8 0-32 16-32 40v6.5c0 .8.7 1.5 1.5 1.5h109c.8 0 1.5-.7 1.5-1.5v-6.5c0-24-24-40-32-40h-1.3z"
         class="iconic-person-female-body iconic-property-fill"
         id="path4154" />
      <path
         d="M104 64c-8 0-18-5.3-18-24 0-22.1-12.3-40-30-40s-30 17.9-30 40c0 18.7-10 24-18 24 0 0 11.5 4.3 24.9 1 5.9 10.1 14.8 17 23.1 17s17.3-7 23.2-17.2c13.2 3.5 24.8-.8 24.8-.8z"
         class="iconic-person-female-head iconic-property-fill"
         id="path4156" />
    </g>
  </g>
  <g
     data-width="128"
     data-height="128"
     class="iconic-lg iconic-container"
     display="inline"
     id="g4158">
    <g
       class="iconic-person-male"
       display="none"
       id="g4160">
      <path
         d="M90.8 80c-.8 0-1.9.5-2.5 1.1-6.6 7.1-14.9 10.9-24.3 10.9s-17.8-3.8-24.3-10.9c-.6-.6-1.7-1.1-2.5-1.1h-5.2c-17.7 0-32 14.3-32 32v14.5c0 .8.7 1.5 1.5 1.5h125c.8 0 1.5-.7 1.5-1.5v-14.5c0-17.7-14.3-32-32-32h-5.2z"
         class="iconic-person-male-body iconic-property-fill"
         id="path4162" />
      <path
         d="M80 8c-.5-7.5-9.4-8-16-8-31.8 0-36.3 26-30 40 0 22.1 10 44 30 44 19.8 0 30-21.9 30-44 7.7-23.7-6.2-32-14-32z"
         class="iconic-person-male-head iconic-property-fill"
         id="path4164" />
    </g>
  </g>
  <g
     data-width="32"
     data-height="32"
     class="iconic-md iconic-container"
     display="none"
     transform="scale(4)"
     id="g4166">
    <g
       class="iconic-person-genderless"
       id="g4168">
      <path
         d="M23.6 20c-.2 0-.6.2-.8.3-1.8 1.7-4.2 2.7-6.8 2.7s-5-1-6.8-2.7c-.2-.1-.5-.3-.8-.3h-.4c-4.4 0-8 3.6-8 8v3.5c0 .3.2.5.5.5h31c.3 0 .5-.2.5-.5v-3.5c0-4.4-3.6-8-8-8h-.4z"
         class="iconic-person-body iconic-property-fill"
         id="path4170" />
      <path
         d="M24 9c0 5.5-2.6 11-8 11-5.5 0-8-5.5-8-11s3.6-9 8-9 8 3.5 8 9z"
         class="iconic-person-head iconic-property-fill"
         id="path4172" />
    </g>
  </g>
  <g
     data-width="28"
     data-height="32"
     class="iconic-md iconic-container"
     display="none"
     transform="scale(4) translate(2)"
     id="g4174">
    <g
       class="iconic-person-female"
       display="none"
       id="g4176">
      <path
         d="M20.6 20.5c-2 2.1-4.3 3.5-6.6 3.5s-4.6-1.4-6.6-3.5c-.2-.2-.5-.3-.8-.2-2.5 1.2-6.6 4.7-6.6 9.7v1.5c0 .3.2.5.5.5h27c.3 0 .5-.2.5-.5v-1.5c0-5-4.1-8.5-6.6-9.6-.3-.2-.7-.1-.8.1z"
         class="iconic-person-female-body iconic-property-fill"
         id="path4178" />
      <path
         d="M26 17c-2 0-4-2.3-4-7 0-5.5-3.6-10-8-10s-8 4.5-8 10c0 4.7-2 7-4 7 0 0 2.9.7 6.3-.2 1.7 2.5 4 4.2 5.7 4.2 1.7 0 4.1-1.8 5.8-4.3 3.3 1 6.2.3 6.2.3z"
         class="iconic-person-female-head iconic-property-fill"
         id="path4180" />
    </g>
  </g>
  <g
     data-width="32"
     data-height="32"
     class="iconic-md iconic-container"
     display="none"
     transform="scale(4)"
     id="g4182">
    <g
       class="iconic-person-male"
       display="none"
       id="g4184">
      <path
         d="M23.9 20.4c-1.9 2.3-4.6 3.6-7.9 3.6s-6-1.3-7.9-3.6c-.2-.2-.5-.4-.8-.4-4.1.4-7.3 3.8-7.3 8v3.5c0 .3.2.5.5.5h31c.3 0 .5-.2.5-.5v-3.5c0-4.2-3.2-7.6-7.3-8-.3 0-.6.2-.8.4z"
         class="iconic-person-male-body iconic-property-fill"
         id="path4186" />
      <path
         d="M20 2c-.1-1.9-2.3-2-4-2-7.9 0-9.6 6.5-8 10 0 5.5 1.9 11 8 11 5.9 0 8-5.5 8-11 1.9-5.9-2.1-8-4-8z"
         class="iconic-person-male-head iconic-property-fill"
         id="path4188" />
    </g>
  </g>
  <g
     data-width="16"
     data-height="16"
     class="iconic-sm iconic-container"
     display="none"
     transform="scale(8)"
     id="g4190">
    <g
       class="iconic-person-genderless"
       id="g4192">
      <path
         d="M12.2 10c-1.1 1.2-2.6 2-4.2 2s-3.1-.8-4.2-2c-2.1.1-3.8 1.9-3.8 4v2h16v-2c0-2.1-1.7-3.9-3.8-4z"
         class="iconic-person-body iconic-property-fill"
         id="path4194" />
      <ellipse
         cx="8"
         cy="5"
         rx="4"
         ry="5"
         class="iconic-person-head iconic-property-fill"
         id="ellipse4196" />
    </g>
  </g>
  <g
     data-width="16"
     data-height="16"
     class="iconic-sm iconic-container"
     display="none"
     transform="scale(8)"
     id="g4198">
    <g
       class="iconic-person-female"
       display="none"
       id="g4200">
      <path
         d="M11.8 10.2c-1.2 1.1-2.5 1.8-3.8 1.8s-2.6-.7-3.8-1.8c-1.5.5-4.2 2.3-4.2 4.8v1h16v-1c0-2.5-2.7-4.3-4.2-4.8z"
         class="iconic-person-female-body iconic-property-fill"
         id="path4202" />
      <path
         d="M14 8c-1 0-2-.7-2-3 0-2.8-1.8-5-4-5s-4 2.2-4 5c0 2.3-1 3-2 3 0 0 1.5.8 3.3.3.8 1 1.9 1.7 2.7 1.7.8 0 1.9-.7 2.8-1.7 1.7.5 3.2-.3 3.2-.3z"
         class="iconic-person-female-head iconic-property-fill"
         id="path4204" />
    </g>
  </g>
  <g
     data-width="16"
     data-height="16"
     class="iconic-sm iconic-container"
     display="none"
     transform="scale(8)"
     id="g4206">
    <g
       class="iconic-person-male"
       display="none"
       id="g4208">
      <path
         d="M12.5 10c-1 1.3-2.6 2-4.5 2s-3.4-.7-4.5-2c-2 .3-3.5 2-3.5 4v2h16v-2c0-2-1.5-3.7-3.5-4z"
         class="iconic-person-male-body iconic-property-fill"
         id="path4210" />
      <path
         d="M10 1c-.1-.9-1.2-1-2-1-4 0-4.8 3.2-4 5 0 2.8 1 5 4 5s4-2.2 4-5c1-3-1-4-2-4z"
         class="iconic-person-male-head iconic-property-fill"
         id="path4212" />
    </g>
  </g>
</svg>
