<?xml version="1.0" encoding="utf-8"?>
<!-- Generator: Adobe Illustrator 18.1.0, SVG Export Plug-In . SVG Version: 6.00 Build 0)  -->
<!DOCTYPE svg PUBLIC "-//W3C//DTD SVG 1.1//EN" "http://www.w3.org/Graphics/SVG/1.1/DTD/svg11.dtd">
<svg version="1.1" id="Print" xmlns="http://www.w3.org/2000/svg" xmlns:xlink="http://www.w3.org/1999/xlink" x="0px" y="0px"
	 viewBox="0 0 128 128" enable-background="new 0 0 128 128" xml:space="preserve">
    <path d="m9.606 38.4h108.8c3.648 0 3.053-3.891 1.235-4.525-1.824-0.6336-22.04-8.275-25.56-8.275h-4.48v-19.2h-51.2v19.2h-4.474c-3.52 0-23.74 7.642-25.56 8.275-1.818 0.6336-2.413 4.525 1.235 4.525zm112 6.4h-115.2c-3.52 0-6.4 2.88-6.4 6.4v32c0 3.526 2.88 6.4 6.4 6.4h14.61l-5.645 32h97.27l-5.651-32h14.61c3.526 0 6.4-2.874 6.4-6.4v-32c0-3.52-2.874-6.4-6.4-6.4zm-92.14 64l7.667-44.82h53.75l7.674 44.82h-69.09z"/>
</svg>
