<svg xmlns:rdf="http://www.w3.org/1999/02/22-rdf-syntax-ns#" xmlns="http://www.w3.org/2000/svg" enable-background="new 0 0 100 100" xml:space="preserve" version="1.1" y="0px" x="0px" xmlns:cc="http://creativecommons.org/ns#" xmlns:dc="http://purl.org/dc/elements/1.1/" viewBox="0 0 128 128"><path d="m64 0.375a1.633 1.633 0 0 0 -1.55 1.129 1.633 1.633 0 0 0 -0.01 0.021c-0.01 0.02-0.01 0.039-0.02 0.059a1.633 1.633 0 0 0 -0.05 0.424 1.633 1.633 0 0 0 0 0.035l-1.89-0.432-0.86-0.293-3.2-0.5836v0.7266l3.42 0.437 0.21 1.752 2.14 0.584 0.51 6.156a3.34 3.34 0 0 0 -2.04 3.07 3.34 3.34 0 0 0 1.78 2.95l-11.57 33.07v10.65h-6.4v-1.46l-11.96-33.71c-0.43-0.73-2.14-0.73-2.35 0.15l-11.74 33.56v15.33h0.43l-0.43 0.14v53.56h38.64v-6.3c0-3 1.71-8.9 7.05-8.9s7.04 5.9 7.04 8.9v6.3h38.45v-53.56l-0.4-0.14v-0.01h0.4v-15.32l-11.98-33.71c-0.42-0.73-2.13-0.73-2.34 0.15l-11.75 33.56v1.46h-6.61v-10.65l-11.68-32.92a3.34 3.34 0 0 0 2.1 -3.1 3.34 3.34 0 0 0 -2.03 -3.07l0.5-5.714 0.43 0.146-0.21 1.75h0.64l0.64-2.48-1.28-1.315h-0.59a1.633 1.633 0 0 0 0.19 -0.769 1.633 1.633 0 0 0 -1.63 -1.633zm-3.52 1.674l1.92 0.262a1.633 1.633 0 0 0 0.16 0.466h-0.37l-1.5 0.293-0.21-1.021zm2.13 62.31v4.67h-7.26c0-2.18 2.99-4.67 7.26-4.67zm2.57 0c4.27 0 7.25 2.49 7.25 4.67h-7.25v-4.67zm-9.83 6.28h7.26v4.67h-7.26v-4.67zm9.83 0h7.25v4.67h-7.25v-4.67zm-28.83 6.42v4.67h-7.26c0-2.04 3.42-4.67 7.26-4.67zm2.56 0c3.2 0 7.26 2.63 7.26 4.67h-7.26v-4.67zm16.66 0h7.26v4.67h-7.26v-4.67zm9.82 0h7.26v4.67h-7.26v-4.67zm23.91 0v4.67h-7.26c0-2.04 3.63-4.67 7.26-4.67zm2.56 0c3.63 0 7.26 2.63 7.26 4.67h-7.26v-4.67zm-62.77 6.42h7.26v4.53h-7.26v-4.53zm9.83 0h7.25v4.53h-7.25v-4.53zm16.65 0h7.26v4.67h-7.26v-4.67zm9.82 0h7.26v4.67h-7.26v-4.67zm16.65 0h7.26v4.53h-7.26v-4.53zm9.82 0h7.26v4.53h-7.26v-4.53zm-62.77 6.28h7.26v4.52h-7.26v-4.52zm9.83 0h7.25v4.52h-7.25v-4.52zm43.12 0h7.26v4.52h-7.26v-4.52zm9.82 0h7.26v4.52h-7.26v-4.52zm-36.29 0.14h7.26v4.53h-7.26v-4.53zm9.82 0h7.26v4.53h-7.26v-4.53zm-36.3 11.4h7.26v4.7h-7.26v-4.7zm9.83 0h7.25v4.7h-7.25v-4.7zm43.12 0h7.26v4.7h-7.26v-4.7zm9.82 0h7.26v4.7h-7.26v-4.7zm-36.29 0.1h7.26v4.7h-7.26v-4.7zm9.82 0h7.26v4.7h-7.26v-4.7z"/></svg>
