<?xml version="1.0" encoding="UTF-8" standalone="no"?>
<!-- Created with Inkscape (http://www.inkscape.org/) -->

<svg
   xmlns:dc="http://purl.org/dc/elements/1.1/"
   xmlns:cc="http://creativecommons.org/ns#"
   xmlns:rdf="http://www.w3.org/1999/02/22-rdf-syntax-ns#"
   xmlns:svg="http://www.w3.org/2000/svg"
   xmlns="http://www.w3.org/2000/svg"
   xmlns:sodipodi="http://sodipodi.sourceforge.net/DTD/sodipodi-0.dtd"
   xmlns:inkscape="http://www.inkscape.org/namespaces/inkscape"
   width="32"
   height="32"
   id="woman"
   version="1.1"
   inkscape:version="0.91 r13725"
   viewBox="0 0 32 32"
   sodipodi:docname="woman.svg">
  <metadata
     id="metadata5340">
    <rdf:RDF>
      <cc:Work
         rdf:about="">
        <dc:format>image/svg+xml</dc:format>
        <dc:type
           rdf:resource="http://purl.org/dc/dcmitype/StillImage" />
        <dc:title></dc:title>
      </cc:Work>
    </rdf:RDF>
  </metadata>
  <defs
     id="defs5337" />
  <sodipodi:namedview
     id="base"
     pagecolor="#ffffff"
     bordercolor="#666666"
     borderopacity="1.0"
     inkscape:pageopacity="0.0"
     inkscape:pageshadow='0'
     inkscape:zoom="9.7501663"
     inkscape:cx="-5.8296406"
     inkscape:cy="11.674869"
     inkscape:current-layer="woman"
     showgrid="true"
     inkscape:grid-bbox="true"
     inkscape:document-units="px"
     inkscape:window-width="1920"
     inkscape:window-height="1057"
     inkscape:window-x="-8"
     inkscape:window-y="-8"
     inkscape:window-maximized="1" />
  <path
     inkscape:connector-curvature='0'
     style="fill:#1d1d1b"
     d="m 29.614559,28.069087 c -1.129465,-1.314729 -5.629243,-2.622536 -7.873537,-3.939242 -1.314553,-0.763135 -2.06265,-2.32005 -2.219329,-3.797884 1.723466,0 2.385476,0 2.385476,0 0,0 0.87809,-1.876206 1.237935,-9.977105 C 23.441243,3.8810543 20.629636,1.5738556 18.240715,0.77809847 17.669095,0.58632656 17.111251,0.4696815 16.580954,0.42618658 l 0,0 0,0 c -0.01205,-0.001931 -0.01808,-0.001931 -0.02323,-0.001931 -0.136022,-0.0207528 -0.268596,-0.0207528 -0.407197,-0.0247128 -0.872923,-0.0207643 -1.559898,0.10379862 -1.820743,0.26788819 -0.723134,0.42407373 -1.076093,1.18720953 -1.225884,1.62116853 -0.05337,0.1443239 -0.07576,0.2411976 -0.08953,0.2817276 -0.005,0.00397 -0.01808,0.00794 -0.01808,0.011858 -0.483816,-0.2510839 -1.464348,-0.058321 -2.241716,0.8461701 l 0,0 C 7.7595959,6.4551925 10.31897,20.33892 10.31897,20.33892 c 0,0 0.642209,0 2.385475,0 -0.161844,1.478821 -0.911663,3.02684 -2.22105,3.795907 -2.2511797,1.314727 -6.7612897,2.629455 -7.8804236,3.941218 -1.12516,1.316705 -1.12516,3.950115 -1.12516,3.950115 l 14.6348276,0 14.634827,0 c -0.0036,-0.007 -0.0036,-2.64033 -1.132907,-3.957034 z"
     id="path104" />
</svg>
